# xmcd
#
# Track frame offsets:
#	150
#	12725
#	22710
#	43276
#	54451
#	66924
#	80458
#	92029
#	108906
#	120058
#	142677
#
# Disc length: 2077 seconds
#
# Revision: 1
# Processed by: cddbd v1.5.2PL0 Copyright (c) Steve Scherf et al.
# Submitted via: audiograbber 1.83.01
#
DISCID=81081b0b
DTITLE=Country Sisters - Hot Ride
DYEAR=1900
DGENRE=Country
TTITLE0=Country Sisters - I Wanna Believe
TTITLE1=Country Sisters - Hot Rod
TTITLE2=Country Sisters - More Than a Lover
TTITLE3=Country Sisters - I Try To THink About Elvis
TTITLE4=Country Sisters - Maybe I Mean Yes
TTITLE5=Country Sisters - Wrong Side Of Love
TTITLE6=Country Sisters - Jolene
TTITLE7=Country Sisters - The Great Unknown
TTITLE8=Country Sisters - Some Days You Gotta Dance
TTITLE9=Country Sisters - Travelin' Soldier
TTITLE10=Country Sisters - Every Little Thing
EXTD=
EXTT0=
EXTT1=
EXTT2=
EXTT3=
EXTT4=
EXTT5=
EXTT6=
EXTT7=
EXTT8=
EXTT9=
EXTT10=
PLAYORDER=
